<svg id="black" xmlns="http://www.w3.org/2000/svg" viewBox="0 0 446.14 276.8"><defs><style>.cls-1{fill:none;stroke:#eaeaea;stroke-width:20px;}</style></defs><path class="cls-1" d="M218.84,389c60.21-16.65,119.09-35.9,176.22-60.71l-9.21-.43c-27.86-1.39-55.65-3.4-83-9.26-8.64-1.85-17.18-4.09-25-8.39a29.45,29.45,0,0,1-5.05-3.52c-4.19-3.65-5.12-8.37-1.75-12.75a88.36,88.36,0,0,1,11.8-12.72c9.81-8.55,21.12-14.93,32.65-20.85a474.82,474.82,0,0,1,62.74-26.32c.49-.16,1-.29,1.7-.49,6.81,11.56,13.63,23.12,20.57,34.91-16,6.3-32.24,11.93-47.54,20.73l69.4,6.56c-1.8-4.37-3.31-8.81-5.39-13q-20.48-41-41.17-81.93c-.39-.78-.75-1.58-1.25-2.65l46.3-21.15c12.78,29.36,25.48,58.54,38.43,88.31l26.81-83.56c6.11.15,54.52,19.31,64,25.31L492.75,299c43.46-.35,86.65-1.67,130.3-.2l-15.35,61c-16.47-4.48-32.64-9.05-48.91-13.26s-32.52-8.46-49.79-10.37l37.18,56.51-59.95,27.72L459.06,363.1l3.59-1.2c10.79-3.7,20.28-9.36,27.48-18.39,4.15-5.21,7-11,7.58-17.78a22.74,22.74,0,0,0-5.26-17c-3.68-4.52-12.51-10-18.9-11.68,9.46,6,11.54,14,12.55,23.78.45,4.25-1.13,9.29-3,13-4.15,8.52-11.54,13.24-19.63,17.29a564.57,564.57,0,0,1-59.64,25.27c-37.81,13.78-75.79,27.15-113.71,40.63-7.41,2.64-14.9,5-22.39,7.46a3.43,3.43,0,0,1-2.73-.3q-22.74-17.32-45.37-34.77A4.51,4.51,0,0,0,218.84,389Z" transform="translate(-189.62 -157.85)"/><path class="cls-1" d="M530.67,186.84l65.51-16.21c0,2.74.05,4.89,0,7.05q-.57,22.47-1.17,44.94c0,1.36-.12,2.4-1.93,2.79-16.58,3.57-33.14,7.25-49.71,10.89a10.85,10.85,0,0,1-1.32.14l20.3-33.68-31.72-15.25Z" transform="translate(-189.62 -157.85)"/><path class="cls-1" d="M471.07,204.22c-4.26,13.55-8.36,26.63-12.47,39.71l-.5.14c-4.12-10.57-8.25-21.13-12.49-32Z" transform="translate(-189.62 -157.85)"/><path d="M218.84,389c60.21-16.65,119.09-35.9,176.22-60.71l-9.21-.43c-27.86-1.39-55.65-3.4-83-9.26-8.64-1.85-17.18-4.09-25-8.39a29.45,29.45,0,0,1-5.05-3.52c-4.19-3.65-5.12-8.37-1.75-12.75a88.36,88.36,0,0,1,11.8-12.72c9.81-8.55,21.12-14.93,32.65-20.85a474.82,474.82,0,0,1,62.74-26.32c.49-.16,1-.29,1.7-.49,6.81,11.56,13.63,23.12,20.57,34.91-16,6.3-32.24,11.93-47.54,20.73l69.4,6.56c-1.8-4.37-3.31-8.81-5.39-13q-20.48-41-41.17-81.93c-.39-.78-.75-1.58-1.25-2.65l46.3-21.15c12.78,29.36,25.48,58.54,38.43,88.31l26.81-83.56c6.11.15,54.52,19.31,64,25.31L492.75,299c43.46-.35,86.65-1.67,130.3-.2l-15.35,61c-16.47-4.48-32.64-9.05-48.91-13.26s-32.52-8.46-49.79-10.37l37.18,56.51-59.95,27.72L459.06,363.1l3.59-1.2c10.79-3.7,20.28-9.36,27.48-18.39,4.15-5.21,7-11,7.58-17.78a22.74,22.74,0,0,0-5.26-17c-3.68-4.52-12.51-10-18.9-11.68,9.46,6,11.54,14,12.55,23.78.45,4.25-1.13,9.29-3,13-4.15,8.52-11.54,13.24-19.63,17.29a564.57,564.57,0,0,1-59.64,25.27c-37.81,13.78-75.79,27.15-113.71,40.63-7.41,2.64-14.9,5-22.39,7.46a3.43,3.43,0,0,1-2.73-.3q-22.74-17.32-45.37-34.77A4.51,4.51,0,0,0,218.84,389Z" transform="translate(-189.62 -157.85)"/><path d="M530.67,186.84l65.51-16.21c0,2.74.05,4.89,0,7.05q-.57,22.47-1.17,44.94c0,1.36-.12,2.4-1.93,2.79-16.58,3.57-33.14,7.25-49.71,10.89a10.85,10.85,0,0,1-1.32.14l20.3-33.68-31.72-15.25Z" transform="translate(-189.62 -157.85)"/><path d="M471.07,204.22c-4.26,13.55-8.36,26.63-12.47,39.71l-.5.14c-4.12-10.57-8.25-21.13-12.49-32Z" transform="translate(-189.62 -157.85)"/><path d="M218.84,389c60.21-16.65,119.09-35.9,176.22-60.71l-9.21-.43c-27.86-1.39-55.65-3.4-83-9.26-8.64-1.85-17.18-4.09-25-8.39a29.45,29.45,0,0,1-5.05-3.52c-4.19-3.65-5.12-8.37-1.75-12.75a88.36,88.36,0,0,1,11.8-12.72c9.81-8.55,21.12-14.93,32.65-20.85a474.82,474.82,0,0,1,62.74-26.32c.49-.16,1-.29,1.7-.49,6.81,11.56,13.63,23.12,20.57,34.91-16,6.3-32.24,11.93-47.54,20.73l69.4,6.56c-1.8-4.37-3.31-8.81-5.39-13q-20.48-41-41.17-81.93c-.39-.78-.75-1.58-1.25-2.65l46.3-21.15c12.78,29.36,25.48,58.54,38.43,88.31l26.81-83.56c6.11.15,54.52,19.31,64,25.31L492.75,299c43.46-.35,86.65-1.67,130.3-.2l-15.35,61c-16.47-4.48-32.64-9.05-48.91-13.26s-32.52-8.46-49.79-10.37l37.18,56.51-59.95,27.72L459.06,363.1l3.59-1.2c10.79-3.7,20.28-9.36,27.48-18.39,4.15-5.21,7-11,7.58-17.78a22.74,22.74,0,0,0-5.26-17c-3.68-4.52-12.51-10-18.9-11.68,9.46,6,11.54,14,12.55,23.78.45,4.25-1.13,9.29-3,13-4.15,8.52-11.54,13.24-19.63,17.29a564.57,564.57,0,0,1-59.64,25.27c-37.81,13.78-75.79,27.15-113.71,40.63-7.41,2.64-14.9,5-22.39,7.46a3.43,3.43,0,0,1-2.73-.3q-22.74-17.32-45.37-34.77A4.51,4.51,0,0,0,218.84,389Z" transform="translate(-189.62 -157.85)"/><path d="M530.67,186.84l65.51-16.21c0,2.74.05,4.89,0,7.05q-.57,22.47-1.17,44.94c0,1.36-.12,2.4-1.93,2.79-16.58,3.57-33.14,7.25-49.71,10.89a10.85,10.85,0,0,1-1.32.14l20.3-33.68-31.72-15.25Z" transform="translate(-189.62 -157.85)"/><path d="M471.07,204.22c-4.26,13.55-8.36,26.63-12.47,39.71l-.5.14c-4.12-10.57-8.25-21.13-12.49-32Z" transform="translate(-189.62 -157.85)"/></svg>