<svg width="273" height="287" viewBox="0 0 273 287" fill="none" xmlns="http://www.w3.org/2000/svg">
<path d="M136.5 0C121.502 0 106.84 4.42954 94.3693 12.7285C81.8985 21.0274 72.1788 32.823 66.4391 46.6236C60.6995 60.4243 59.1977 75.6101 62.1238 90.2608C65.0498 104.911 72.2723 118.369 82.8777 128.931C93.4832 139.494 106.995 146.687 121.706 149.601C136.416 152.516 151.663 151.02 165.52 145.304C179.377 139.587 191.22 129.907 199.553 117.486C207.886 105.066 212.333 90.464 212.333 75.5263C212.333 55.4955 204.344 36.2851 190.122 22.1211C175.901 7.95721 156.612 0 136.5 0ZM136.5 120.842C127.501 120.842 118.704 118.184 111.222 113.205C103.739 108.226 97.9073 101.148 94.4635 92.8679C91.0197 84.5875 90.1186 75.476 91.8743 66.6856C93.6299 57.8952 97.9633 49.8207 104.327 43.4832C110.69 37.1457 118.797 32.8298 127.623 31.0813C136.45 29.3327 145.598 30.2301 153.912 33.66C162.226 37.0898 169.332 42.8981 174.332 50.3502C179.331 57.8024 182 66.5637 182 75.5263C182 87.5448 177.206 99.0711 168.673 107.569C160.14 116.068 148.567 120.842 136.5 120.842ZM273 287V271.895C273 243.852 261.815 216.957 241.904 197.128C221.994 177.298 194.99 166.158 166.833 166.158H106.167C78.0095 166.158 51.0056 177.298 31.0955 197.128C11.1854 216.957 0 243.852 0 271.895V287H30.3333V271.895C30.3333 251.864 38.3229 232.653 52.5444 218.49C66.7659 204.326 86.0544 196.368 106.167 196.368H166.833C186.946 196.368 206.234 204.326 220.456 218.49C234.677 232.653 242.667 251.864 242.667 271.895V287H273Z" fill="#DA4040"/>
</svg>
