<svg id="Layer_1" data-name="Layer 1" xmlns="http://www.w3.org/2000/svg" viewBox="0 0 300 300"><defs><style>.cls-1{fill:#010000;}.cls-2,.cls-4{fill:#fd0101;}.cls-3{fill:#fefbfb;}.cls-4{stroke:#fffdfd;stroke-miterlimit:10;stroke-width:6px;}</style></defs><rect class="cls-1" width="300" height="300" rx="57.21"/><path class="cls-2" d="M441.78,430.11c0-2.17-.09-4.09-1.59-6q-18.07-23.52-35.9-47.24c-1.53-2-2.86-3.05-5.74-2.42q-60.69,13.21-121.44,26.15c-30.6,6.58-61.19,13.25-91.82,19.7-4.09.86-4.78,2.59-4,6.43,5.42,28.31,10.62,56.66,15.94,85q11.84,63,23.71,126c.39,2.12,1.09,3,3.34,3.43,10.55,2.11,21,4.64,31.59,6.75,4.67.93,9.24,3.26,14.08,2.44,30.2-5.17,60.37-10.5,90.55-15.81,25.44-4.48,50.86-9.1,76.33-13.4,3.21-.54,4-1.51,4-4.61,0-31.14-.48-62.28,1-100.75C441.77,492.06,441.76,461.09,441.78,430.11Z" transform="translate(-164.02 -362)"/><polygon class="cls-3" points="85.59 234.53 42.17 127.83 67.28 83.07 250.04 48.49 252.56 190.79 213.39 202.25 193.34 228.53 217.62 233.28 152.34 260.19 168.81 238.57 149.82 234.35 157.57 217.62 85.59 234.53"/><path class="cls-4" d="M284.76,486.33a74.78,74.78,0,0,1,3.66-12.08A42,42,0,0,1,295,463.16a40.27,40.27,0,0,1,10.55-9,48.17,48.17,0,0,1,15.36-5.65,62.06,62.06,0,0,1,15.19-1.34,31.32,31.32,0,0,1,12.25,2.91,23.68,23.68,0,0,1,8.94,7.71,34,34,0,0,1,5.26,13.05,23.74,23.74,0,0,1,.14,9.73,31.69,31.69,0,0,1-2.87,8.11,43.23,43.23,0,0,1-4.6,7c-1.78,2.21-3.43,4.34-5,6.4a40.5,40.5,0,0,0-3.89,6.26c-1,2.12,1.83,10.59,1.88,12.9l-26.9,5.09c-1-4.88-5.14-12.27-2.18-21.91,1.17-3.84,2-7.26,3.6-10a30.39,30.39,0,0,1,2.4-3.82q1.37-1.86,2.46-3.51a24.15,24.15,0,0,0,1.76-3.06,4.11,4.11,0,0,0,.42-2.62,3.73,3.73,0,0,0-3.13-2.93,12.34,12.34,0,0,0-5.41-.1q-4.12.84-8.19,5.39a46.71,46.71,0,0,0-6.81,9.87Zm69.65,52.51a17.48,17.48,0,0,1,0,7.13,18.19,18.19,0,0,1-7.53,11.36,18.2,18.2,0,0,1-13.71,2.78,18.3,18.3,0,0,1-11.36-7.53A18.2,18.2,0,0,1,319,538.87a18.3,18.3,0,0,1,7.53-11.36,18.22,18.22,0,0,1,13.72-2.78,18.26,18.26,0,0,1,11.36,7.53A17.78,17.78,0,0,1,354.41,538.84Z" transform="translate(-164.02 -362)"/></svg>