<svg id="Layer_1" data-name="Layer 1" xmlns="http://www.w3.org/2000/svg" viewBox="0 0 300 300"><defs><style>.cls-1{fill:#010000;}.cls-2{fill:#fd0101;}.cls-3{fill:#fefbfb;}</style></defs><rect class="cls-1" width="300" height="300" rx="57.21"/><path class="cls-2" d="M441.78,430.11c0-2.17-.09-4.09-1.59-6q-18.07-23.52-35.9-47.24c-1.53-2-2.86-3.05-5.74-2.42q-60.69,13.21-121.44,26.15c-30.6,6.58-61.19,13.25-91.82,19.7-4.09.86-4.78,2.59-4,6.43,5.42,28.31,10.62,56.66,15.94,85q11.84,63,23.71,126c.39,2.12,1.09,3,3.34,3.43,10.55,2.11,21,4.64,31.59,6.75,4.67.93,9.24,3.26,14.08,2.44,30.2-5.17,60.37-10.5,90.55-15.81,25.44-4.48,50.86-9.1,76.33-13.4,3.21-.54,4-1.51,4-4.61,0-31.14-.48-62.28,1-100.75C441.77,492.06,441.76,461.09,441.78,430.11Z" transform="translate(-164.02 -362)"/><polygon class="cls-3" points="85.59 234.53 42.17 127.83 67.28 83.07 250.04 48.49 252.56 190.79 213.39 202.25 193.34 228.53 217.62 233.28 152.34 260.19 168.81 238.57 149.82 234.35 157.57 217.62 85.59 234.53"/><path class="cls-2" d="M321.64,505.83c13.17-14.17,35.52-39.6,49-54.29,3.68-4,5.55-4.92,7.26-1.38.28.59.83,1,1.11,1.56,2,4.24,9.38,4.95,7.45,11-1.6,5-7.18,10.25-11.19,15.25-19.53,24.35-39.25,48.58-58.61,73-3.58,4.53-5.54,5.14-8.84,3.32a77.81,77.81,0,0,0-15.94-7.09c-5.55-1.59-3.57-4.38.46-8.68Z" transform="translate(-164.02 -362)"/><path class="cls-2" d="M321.77,482.91c17.48,9.42,48.51,25,66.58,34.57,4.95,2.61,6.32,4.25,3.21,6.9-.51.44-.75,1.09-1.27,1.53-3.71,3.13-2.55,10.71-9.09,10.38-5.39-.27-12-4.46-18.05-7.14-29.24-13.08-58.41-26.37-87.73-39.25-5.42-2.38-6.53-4.18-5.55-8,1.47-5.77,2.84-11.67,3-17.84.18-6,3.46-4.74,8.77-1.85Z" transform="translate(-164.02 -362)"/></svg>