<svg id="Layer_2" data-name="Layer 2" xmlns="http://www.w3.org/2000/svg" viewBox="0 0 1944.19 3061"><defs><style>.cls-1{opacity:0.8;}.cls-2{fill:#fff;}</style></defs><polygon class="cls-1" points="0 0 0 3061 1935 3061 196.66 0 0 0"/><polygon points="739.19 965.6 648.87 1551.24 92.95 1819.6 644.11 2097.61 727.55 2709.26 1162.28 2270.98 1514.27 2334.52 739.19 965.6"/><polygon class="cls-2" points="821.72 1111.36 784.32 1072.32 705.63 1582.62 240.65 1807.08 701.64 2039.61 771.44 2551.2 1135.05 2184.62 1462.91 2243.8 821.72 1111.36"/><polygon points="917.78 1281.03 816.93 1175.74 750.37 1607.35 357.09 1797.21 747 1993.88 806.03 2426.59 1113.58 2116.53 1422.41 2172.28 917.78 1281.03"/><polygon class="cls-2" points="1034.65 1487.44 856.61 1301.57 804.81 1637.45 498.75 1785.19 802.19 1938.25 848.13 2274.98 1087.46 2033.69 1373.14 2085.26 1034.65 1487.44"/><polyline points="1197.08 1774.3 1095.16 1594.31 1066.26 1599.01 893.54 1418.7 855.49 1665.47 630.63 1774.01 853.56 1886.46 887.31 2133.84 1063.14 1956.58 1308.85 2000.93 1302.41 1959.99 1197.08 1774.3"/><polygon class="cls-2" points="1159.84 1708.54 1122.16 1641.99 1041.78 1655.06 929.08 1537.4 904.25 1698.42 757.52 1769.25 902.99 1842.63 925.01 2004.05 1039.74 1888.38 1210.99 1915.7 1125.52 1772.46 1159.84 1708.54"/><polygon points="1556.65 2409.02 1279.03 1918.7 1148.07 2136.23 815.47 2156.48 1033.85 2408.15 950.34 2730.72 1257.17 2600.8 1538.15 2779.91 1509.4 2447.95 1556.65 2409.02"/><polygon class="cls-2" points="1539.43 2378.6 1446.03 2213.64 1414.57 2206.34 1352.25 2048.01 1308.52 1970.79 1178.59 2186.6 911.55 2202.86 1086.89 2404.92 1019.83 2663.91 1266.19 2559.6 1491.78 2703.41 1468.71 2436.87 1539.43 2378.6"/><polygon points="1527.4 2357.35 1469.65 2255.36 1395.41 2238.15 1314.24 2031.91 1199.92 2221.79 978.69 2235.26 1123.95 2402.66 1068.4 2617.23 1272.49 2530.81 1459.39 2649.95 1440.27 2429.14 1527.4 2357.35"/><polygon class="cls-2" points="1511.27 2328.88 1501.3 2311.26 1369.76 2280.77 1311.1 2131.75 1228.5 2268.95 1068.64 2278.68 1173.6 2399.64 1133.46 2554.68 1280.93 2492.24 1415.98 2578.32 1402.16 2418.77 1511.27 2328.88"/><polygon points="1140.85 2309.53 1251.43 2302.8 1308.58 2207.88 1349.16 2310.98 1457.09 2336 1371.58 2406.45 1381.14 2516.83 1287.71 2457.27 1185.69 2500.47 1213.46 2393.22 1140.85 2309.53"/><polygon class="cls-2" points="1211.07 2339.38 1270.62 2335.75 1301.4 2284.63 1323.25 2340.16 1381.38 2353.63 1335.33 2391.57 1340.47 2451.02 1290.16 2418.94 1235.21 2442.21 1250.17 2384.45 1211.07 2339.38"/><polygon class="cls-2" points="1944.19 3061 211.04 0 192.65 0 1925.81 3061 1944.19 3061"/></svg>